<svg width="32" height="32" fill="none" xmlns="http://www.w3.org/2000/svg"><path d="M16 0C7.169 0 0 7.169 0 16s7.169 16 16 16 16-7.169 16-16S24.831 0 16 0zm.727 5.631l.166-1.226a1.06 1.06 0 011.164-.893c.561.083.977.602.894 1.163l-.167 1.226c-.062.52-.52.894-1.018.894h-.145a1.022 1.022 0 01-.894-1.164zm-9.932 9.372c-.063.52-.52.893-1.018.893H5.63l-1.226-.166c-.56-.083-.976-.603-.893-1.164a1.06 1.06 0 011.163-.893l1.226.166c.582.062.977.603.894 1.164zM9.06 8.457l-.748-.976c-.354-.458-.25-1.102.207-1.455.458-.353 1.102-.25 1.455.208l.748.997c.353.457.25 1.101-.208 1.455a1.022 1.022 0 01-.623.208 1.142 1.142 0 01-.831-.437zm9.932 14.276l-.582 4.322a1.233 1.233 0 01-1.413 1.06l-4.571-.624a1.233 1.233 0 01-1.06-1.413l.603-4.343a6.888 6.888 0 01-2.618-5.423 6.961 6.961 0 0113.922 0c0 2.888-1.767 5.36-4.28 6.42zM24.79 10.93c-.312 0-.624-.146-.832-.416-.353-.457-.249-1.101.208-1.454l.977-.748c.457-.354 1.101-.25 1.454.207.354.458.25 1.102-.207 1.455l-.998.748a1.055 1.055 0 01-.602.208zm3.303 8.041h-.145l-1.226-.166c-.561-.083-.977-.602-.893-1.163.083-.561.602-.977 1.163-.894l1.226.166c.561.083.977.603.894 1.164-.063.52-.52.893-1.018.893z" fill="#77C572"/><path d="M9.226 1.517l4.384.935 1.143-2.39a15.43 15.43 0 00-5.527 1.455z" fill="#B6E38E"/><path d="M16 0c-.416 0-.831.02-1.247.062l-1.143 2.39L17.538.083A12.485 12.485 0 0016 0z" fill="#A1D986"/><path d="M27.99 26.577a16.096 16.096 0 003.366-6.13l-9.746 5.32 6.38.81z" fill="#44A458"/><path d="M27.99 26.577l-6.38-.81.873 4.862a15.874 15.874 0 005.507-4.052z" fill="#3E9953"/><path d="M3.74 18.494H.187a15.873 15.873 0 003.761 8.041l-.208-8.041z" fill="#7CBF70"/><path d="M4.405 15.73c-.56-.083-.976-.603-.893-1.164a1.06 1.06 0 011.163-.893l1.226.166c.208.02.395.125.54.25l3.221-5.237a.971.971 0 01-.602-.395l-.748-.977c-.354-.457-.25-1.1.207-1.454.458-.353 1.102-.25 1.455.208l.727.976 2.91-4.737-4.385-.956C3.782 4.052 0 9.579 0 16c0 .852.062 1.683.187 2.494H3.74l1.621-2.64-.956-.124z" fill="#9AD683"/><path d="M30.712 9.683L18.95 4.696l-.166 1.205c-.063.52-.52.894-1.019.894h-.145c-.561-.083-.977-.603-.894-1.164l.167-1.226c.02-.187.104-.332.187-.478l-3.367-1.433 2.328 6.857h.27a6.961 6.961 0 016.96 6.96 6.967 6.967 0 01-2.95 5.694l1.288 3.761 7.273-.27A15.995 15.995 0 0032 16a16.04 16.04 0 00-1.288-6.317zM24.79 10.93c-.312 0-.624-.146-.831-.416-.354-.457-.25-1.101.207-1.454l.977-.748c.457-.354 1.101-.25 1.454.208.354.457.25 1.1-.207 1.454l-.998.748a1.055 1.055 0 01-.602.208zm4.322 7.148a1.03 1.03 0 01-1.018.893h-.146l-1.226-.166c-.56-.083-.977-.602-.893-1.163.083-.561.602-.977 1.163-.894l1.226.166c.582.063.977.582.894 1.164z" fill="#65BD6B"/><path d="M18.078 3.512c.56.083.977.602.893 1.163v.021l11.74 4.987C28.448 4.447 23.46.644 17.539.083L13.61 2.431l3.491 1.476c.229-.27.582-.458.977-.395z" fill="#7FCB79"/><path d="M12.426 27.49a1.233 1.233 0 01-1.06-1.412l.582-4.239-8.208-3.345.146 7.937a16.02 16.02 0 003.47 3.013l6.732-1.745-1.662-.208zM18.473 26.577l3.138-.81-2.868-1.164-.27 1.974z" fill="#6DB668"/><path d="M18.473 26.577l-.063.477a1.233 1.233 0 01-1.413 1.06l-2.93-.395-6.732 1.746A15.97 15.97 0 0015.979 32c2.307 0 4.488-.499 6.483-1.371l-.852-4.863-3.137.81z" fill="#56A25C"/></svg>