<svg width="32" height="32" viewBox="0 0 32 32" fill="none" xmlns="http://www.w3.org/2000/svg">
<path d="M16 0C7.16883 0 0 7.16883 0 16C0 24.8312 7.16883 32 16 32C24.8312 32 32 24.8312 32 16C32 7.16883 24.8312 0 16 0ZM16.7273 5.63117L16.8935 4.40519C16.9766 3.84416 17.4961 3.44935 18.0571 3.51169C18.6182 3.59481 19.0338 4.11429 18.9506 4.67532L18.7844 5.9013C18.7221 6.42078 18.2649 6.79481 17.7662 6.79481C17.7247 6.79481 17.6623 6.79481 17.6208 6.79481C17.0597 6.73247 16.6442 6.21299 16.7273 5.63117ZM6.79481 15.0026C6.73247 15.5221 6.27532 15.8961 5.77662 15.8961C5.73506 15.8961 5.67273 15.8961 5.63117 15.8961L4.40519 15.7299C3.84416 15.6468 3.42857 15.1273 3.51169 14.5662C3.59481 14.0052 4.11429 13.6104 4.67532 13.6727L5.9013 13.839C6.48312 13.9013 6.87792 14.4416 6.79481 15.0026ZM9.05974 8.45714L8.31169 7.48052C7.95844 7.02338 8.06234 6.37922 8.51948 6.02597C8.97662 5.67273 9.62078 5.77662 9.97403 6.23377L10.7221 7.23117C11.0753 7.68831 10.9714 8.33247 10.5143 8.68571C10.3273 8.83117 10.0987 8.89351 9.89091 8.89351C9.57922 8.87273 9.26753 8.72727 9.05974 8.45714ZM18.9922 22.7325L18.4104 27.0545C18.3273 27.7403 17.6831 28.2182 16.9974 28.1143L12.426 27.4909C11.7403 27.4078 11.2623 26.7636 11.3662 26.0779L11.9688 21.7351C10.3688 20.4675 9.35065 18.5143 9.35065 16.3117C9.35065 12.4675 12.4675 9.35065 16.3117 9.35065C20.1558 9.35065 23.2727 12.4675 23.2727 16.3117C23.2727 19.2 21.5065 21.6727 18.9922 22.7325ZM24.7896 10.9299C24.4779 10.9299 24.1662 10.7844 23.9584 10.5143C23.6052 10.0571 23.7091 9.41299 24.1662 9.05974L25.1429 8.31169C25.6 7.95844 26.2442 8.06234 26.5974 8.51948C26.9506 8.97662 26.8468 9.62078 26.3896 9.97403L25.3922 10.7221C25.226 10.8468 24.9974 10.9299 24.7896 10.9299ZM28.0935 18.9714C28.0519 18.9714 27.9896 18.9714 27.9481 18.9714L26.7221 18.8052C26.161 18.7221 25.7455 18.2026 25.8286 17.6416C25.9117 17.0805 26.4312 16.6649 26.9922 16.7481L28.2182 16.9143C28.7792 16.9974 29.1948 17.5169 29.1117 18.0779C29.0494 18.5974 28.5922 18.9714 28.0935 18.9714Z" fill="#77C572"/>
<path d="M9.22607 1.5168L13.6105 2.45187L14.7533 0.0622559C12.7793 0.20771 10.93 0.706412 9.22607 1.5168Z" fill="#B6E38E"/>
<path d="M16 0C15.5844 0 15.1688 0.0207792 14.7532 0.0623377L13.6104 2.45195L17.5376 0.0831169C17.0389 0.0207792 16.5194 0 16 0Z" fill="#A1D986"/>
<path d="M27.9896 26.5766C29.5272 24.8312 30.6909 22.7325 31.3558 20.4468L21.6104 25.7663L27.9896 26.5766Z" fill="#44A458"/>
<path d="M27.9896 26.5766L21.6104 25.7662L22.4831 30.6286C24.6026 29.6935 26.4727 28.3013 27.9896 26.5766Z" fill="#3E9953"/>
<path d="M3.74026 18.4935H0.187012C0.664934 21.5481 1.9948 24.3117 3.94805 26.5351L3.74026 18.4935Z" fill="#7CBF70"/>
<path d="M4.40519 15.7298C3.84416 15.6467 3.42857 15.1272 3.51169 14.5662C3.59481 14.0052 4.11429 13.6103 4.67532 13.6727L5.9013 13.8389C6.10909 13.8597 6.2961 13.9636 6.44156 14.0883L9.66234 8.85191C9.43377 8.81035 9.20519 8.6649 9.05974 8.4571L8.31169 7.48048C7.95844 7.02334 8.06234 6.37918 8.51948 6.02594C8.97662 5.67269 9.62078 5.77658 9.97403 6.23373L10.7013 7.21035L13.6104 2.47269L9.22597 1.51685C3.78182 4.05191 0 9.57918 0 16C0 16.8519 0.0623377 17.6831 0.187013 18.4935H3.74026L5.36104 15.8545L4.40519 15.7298Z" fill="#9AD683"/>
<path d="M30.7118 9.68314L18.9507 4.69613L18.7845 5.90132C18.7221 6.4208 18.265 6.79483 17.7663 6.79483C17.7247 6.79483 17.6624 6.79483 17.6208 6.79483C17.0598 6.71171 16.6442 6.19223 16.7273 5.63119L16.8936 4.40522C16.9144 4.21821 16.9975 4.07275 17.0806 3.9273L13.7144 2.49353L16.0416 9.35067C16.1247 9.35067 16.2286 9.35067 16.3118 9.35067C20.1559 9.35067 23.2728 12.4676 23.2728 16.3117C23.2728 18.6598 22.1092 20.7377 20.3221 22.0052L21.6105 25.7663L28.8832 25.4961C30.8364 22.8364 32.0001 19.5533 32.0001 16C32.0001 13.7559 31.5429 11.6364 30.7118 9.68314ZM24.7897 10.9299C24.478 10.9299 24.1663 10.7844 23.9585 10.5143C23.6053 10.0572 23.7092 9.41301 24.1663 9.05976L25.1429 8.31171C25.6001 7.95847 26.2442 8.06236 26.5975 8.5195C26.9507 8.97665 26.8468 9.6208 26.3897 9.97405L25.3923 10.7221C25.226 10.8468 24.9975 10.9299 24.7897 10.9299ZM29.1118 18.0779C29.0494 18.5974 28.5923 18.9715 28.0936 18.9715C28.052 18.9715 27.9897 18.9715 27.9481 18.9715L26.7221 18.8052C26.1611 18.7221 25.7455 18.2026 25.8286 17.6416C25.9118 17.0805 26.4312 16.665 26.9923 16.7481L28.2183 16.9143C28.8001 16.9766 29.1949 17.4961 29.1118 18.0779Z" fill="#65BD6B"/>
<path d="M18.0779 3.5117C18.6389 3.59482 19.0545 4.1143 18.9714 4.67534V4.69612L30.7117 9.68313C28.4467 4.44677 23.4597 0.644169 17.5376 0.0831299L13.6104 2.43118L17.1013 3.90651C17.3298 3.63638 17.6831 3.44936 18.0779 3.5117Z" fill="#7FCB79"/>
<path d="M12.4259 27.4909C11.7402 27.4078 11.2623 26.7637 11.3662 26.078L11.948 21.839L3.74023 18.4935L3.88569 26.4312C4.88309 27.5948 6.06751 28.613 7.35582 29.4442L14.0883 27.6987L12.4259 27.4909Z" fill="#6DB668"/>
<path d="M18.4729 26.5767L21.6106 25.7663L18.743 24.6027L18.4729 26.5767Z" fill="#6DB668"/>
<path d="M18.4726 26.5766L18.4103 27.0545C18.3272 27.7403 17.683 28.2182 16.9973 28.1143L14.0674 27.7195L7.33496 29.4649C9.82847 31.0649 12.7999 32 15.9791 32C18.2856 32 20.4674 31.5013 22.4622 30.6286L21.6103 25.7662L18.4726 26.5766Z" fill="#56A25C"/>
</svg>
